<?xml version="1.0" encoding="utf-8"?>
<!-- Generator: Adobe Illustrator 19.2.1, SVG Export Plug-In . SVG Version: 6.00 Build 0)  -->
<svg version="1.1" id="Ebene_1" xmlns="http://www.w3.org/2000/svg" xmlns:xlink="http://www.w3.org/1999/xlink" x="0px" y="0px"
	 viewBox="0 0 3193.8 822.5" style="enable-background:new 0 0 3193.8 822.5;" xml:space="preserve">
<style type="text/css">
	.st0{fill:none;stroke:#FFFFFF;stroke-width:10;}
</style>
<g>
	<path class="st0" d="M78.3,84.3v581.6H0V84.3H78.3z M16.3,100.7v548.9h45.6V100.7H16.3z M201.3,78.3h-117V0h117V78.3z M86,253.8
		l83.4-82.6l55.1,55.1l-83.4,83.4L86,253.8z M185,16.3h-84.3v45.6H185V16.3z M141.1,287.3l61.1-61.1l-32.7-32.7l-60.2,59.4
		L141.1,287.3z"/>
	<path class="st0" d="M237.4,523.9v-78.3h78.3v78.3H237.4z M299.3,507.6V462h-45.6v45.6H299.3z M259.8,382.8l55.9-55.9l55.1,55.9
		l-55.1,55.1L259.8,382.8z M315.7,642.7l-55.9-55.1l55.9-55.9l55.1,55.9L315.7,642.7z M348.4,587.6L315.7,554l-33.5,33.6l33.5,32.7
		L348.4,587.6z M315.7,415.5l32.7-32.7l-32.7-33.5L283,382L315.7,415.5z M378.5,304.5h78.3v78.3h-78.3V304.5z M456.8,665.9h-78.3
		v-78.3h78.3V665.9z M394.8,366.5h45.6v-45.6h-45.6V366.5z M440.4,603.9h-45.6v45.6h45.6V603.9z M536.8,462v45.6H677v158.3h-78.3
		v-142h-78.3v-78.3h78.3V234.9H456.8v-78.3H677V462H536.8z M520.5,326.9l55.1,55.9l-55.1,55.1l-55.9-55.1L520.5,326.9z M575.5,587.6
		l-55.1,55.1l-55.9-55.1l55.9-55.9L575.5,587.6z M615.1,445.6h45.6V172.9H473.1v45.6h142V445.6z M486.9,382.8l33.6,32.7l32.7-32.7
		l-32.7-33.5L486.9,382.8z M520.5,554l-33.6,33.6l33.6,32.7l32.7-32.7L520.5,554z M660.7,649.5V523.9h-45.6v125.6H660.7z"/>
	<path class="st0" d="M888.6,624.6h-78.3v-468h78.3V624.6z M872.2,172.9h-45.6v435.3h45.6V172.9z M918.7,624.6l33.5,32.7L1141.5,468
		v197.9h-78.3v-97.2l-111,111l-55.9-55.1l166.9-166.9V156.6h78.3v245.2L918.7,624.6z M1079.6,172.9v268.4l45.6-45.6V172.9H1079.6z
		 M1125.2,506.7l-45.6,45.6v97.2h45.6V506.7z"/>
	<path class="st0" d="M1433.9,541.1l-138.5,137.7l-55.1-55.1l115.3-115.3V313.1l-115.3-115.3l55.1-55.1l138.5,138.5V541.1z
		 M1417.6,287.3l-122.2-122.2l-32.7,32.7L1372,307.1v207.3l-109.3,109.2l32.7,32.7L1417.6,535L1417.6,287.3L1417.6,287.3z
		 M1441.7,281.3l138.5-138.5l55.1,55.1l-137.7,138.5L1441.7,281.3z M1635.2,623.7l-55.1,55.9l-138.5-138.5l55.9-55.9L1635.2,623.7z
		 M1497.6,507.6l-33.5,33.6l116.1,116.2l32.7-33.6L1497.6,507.6z M1497.6,314l115.3-116.1l-32.7-32.7l-115.3,115.3L1497.6,314z"/>
	<path class="st0" d="M1957.7,444.8V156.6h188.4v78.3H2036v265l110.1,111L2091,666l-55.1-55.1v211.6h-78.3V510.2L2091,643.6
		l32.7-32.7L1957.7,444.8z M2129.8,218.5v-45.6h-155.7V437l45.6,46.4v-265h110.1V218.5z M1974.1,806.1h45.6V594.5l-45.6-45.6V806.1z
		 M2209.8,289.9l-55.9-55.9l55.9-55.1l55.1,55.1L2209.8,289.9z M2209.8,554.9l55.1,55.9l-55.1,55.1l-55.9-55.1L2209.8,554.9z
		 M2242.5,234l-32.7-32.7l-33.6,32.7l33.6,33.6L2242.5,234z M2176.2,610.8l33.6,32.7l32.7-32.7l-32.7-33.5L2176.2,610.8z
		 M2288.1,297.7v249.5h-78.3V297.7H2288.1z M2226.1,314v216.8h45.6V314H2226.1z"/>
	<path class="st0" d="M2374,523.9v-78.3h78.3v78.3H2374z M2435.9,507.6V462h-45.6v45.6H2435.9z M2396.4,382.8l55.9-55.9l55.1,55.9
		l-55.1,55.1L2396.4,382.8z M2452.3,642.7l-55.9-55.1l55.9-55.9l55.1,55.9L2452.3,642.7z M2485,587.6l-32.7-33.6l-33.6,33.6
		l33.6,32.7L2485,587.6z M2452.3,415.5l32.7-32.7l-32.7-33.5l-32.7,32.7L2452.3,415.5z M2515.1,304.5h78.3v78.3h-78.3V304.5z
		 M2593.4,665.9h-78.3v-78.3h78.3V665.9z M2531.4,366.5h45.6v-45.6h-45.6V366.5z M2577,603.9h-45.6v45.6h45.6V603.9z M2673.4,462
		v45.6h140.2v158.3h-78.3v-142H2657v-78.3h78.3V234.9h-142v-78.3h220.2V462H2673.4z M2657.1,326.9l55.1,55.9l-55.1,55.1l-55.9-55.1
		L2657.1,326.9z M2712.1,587.6l-55.1,55.1l-55.9-55.1l55.9-55.9L2712.1,587.6z M2751.7,445.6h45.6V172.9h-187.6v45.6h141.9v227.1
		H2751.7z M2623.5,382.8l33.6,32.7l32.7-32.7l-32.7-33.5L2623.5,382.8z M2657.1,554l-33.6,33.6l33.6,32.7l32.7-32.7L2657.1,554z
		 M2797.3,649.5V523.9h-45.6v125.6H2797.3z"/>
	<path class="st0" d="M2976.1,679.7l-55.1-55.1l55.1-55.9l55.1,55.9L2976.1,679.7z M3178.3,477.5l-55.1,55.1l-187.6-186.7l55.9-55.9
		L3178.3,477.5z M3020,142.8l55.9,55.9l-84.3,83.4l-55.1-55.1L3020,142.8z M3008.8,624.6l-32.7-33.6l-32.7,33.6l32.7,32.7
		L3008.8,624.6z M2991.6,312.3l-33.5,33.5l165.2,164.3l32.7-32.7L2991.6,312.3z M2958.9,227.1l32.7,32.7l62-61.1l-32.7-33.6
		L2958.9,227.1z M3094.8,679.7l-55.9-55.1l84.3-84.3l55.1,55.9L3094.8,679.7z M3155.9,596.2l-32.7-33.5l-61.9,62l33.5,32.7
		L3155.9,596.2z M3138.7,142.8l55.1,55.9l-55.1,55.1l-55.1-55.1L3138.7,142.8z M3106,198.7l32.7,32.7l32.7-32.7l-31.8-33.6
		L3106,198.7z"/>
</g>
</svg>
