<svg version="1.1" id="Ebene_1" xmlns="http://www.w3.org/2000/svg" xmlns:xlink="http://www.w3.org/1999/xlink" x="0px" y="0px"
	 viewBox="0 0 1425.7 366.9" xml:space="preserve">
<g>
	<path class="st0" d="M34.9,37.6V297H0V37.6H34.9z M89.8,34.9H37.6V0h52.2V34.9z M38.4,113.2l37.2-36.8l24.6,24.6l-37.2,37.2
		L38.4,113.2z"/>
	<path class="st0" d="M106,233.7v-34.9h34.9v34.9H106z M116,170.8l25-25l24.6,25l-24.6,24.6L116,170.8z M140.9,286.7l-25-24.6l25-25
		l24.6,25L140.9,286.7z M168.9,135.9h34.9v34.9h-34.9V135.9z M203.9,297h-34.9v-34.9h34.9V297z M267.2,198.8v-94h-63.3V69.8h98.2
		V297h-34.9v-63.3h-34.9v-34.9H267.2z M232.3,145.8l24.6,25l-24.6,24.6l-25-24.6L232.3,145.8z M256.8,262.1l-24.6,24.6l-25-24.6
		l25-25L256.8,262.1z"/>
	<path class="st0" d="M396.7,278.6h-34.9V69.8h34.9V278.6z M425.1,303.2l-25-24.6l74.5-74.5V69.8h34.9V297h-34.9v-43.4L425.1,303.2z
		"/>
	<path class="st0" d="M640.1,241.4l-61.8,61.4l-24.6-24.6l51.4-51.4v-87.1l-51.4-51.4l24.6-24.6l61.8,61.8V241.4z M643.5,125.5
		l61.8-61.8l24.6,24.6l-61.4,61.8L643.5,125.5z M729.9,278.2l-24.6,25l-61.8-61.8l25-24.9L729.9,278.2z"/>
	<path class="st0" d="M908.9,223l49.1,49.5L933.5,297l-24.6-24.6v94.4H874v-297h84v34.9h-49.1V223z M1011,104.4l-24.6,24.9l-25-24.9
		l25-24.6L1011,104.4z M961.5,272.5l25-25l24.6,25L986.4,297L961.5,272.5z M986.4,132.8h34.9v111.3h-34.9V132.8z"/>
	<path class="st0" d="M1059.8,233.7v-34.9h34.9v34.9H1059.8z M1069.8,170.8l25-25l24.6,25l-24.6,24.6L1069.8,170.8z M1094.8,286.7
		l-25-24.6l25-25l24.6,25L1094.8,286.7z M1122.8,135.9h34.9v34.9h-34.9V135.9z M1157.7,297h-34.9v-34.9h34.9V297z M1221,198.8v-94
		h-63.3V69.8h98.2V297H1221v-63.3h-34.9v-34.9H1221z M1186.1,145.8l24.6,25l-24.6,24.6l-25-24.6L1186.1,145.8z M1210.7,262.1
		l-24.6,24.6l-25-24.6l25-25L1210.7,262.1z"/>
	<path class="st0" d="M1328.6,303.2l-24.6-24.6l24.6-25l24.6,25L1328.6,303.2z M1418.8,213l-24.6,24.6l-83.7-83.3l24.9-25
		L1418.8,213z M1348.2,63.7l25,25l-37.6,37.2l-24.6-24.6L1348.2,63.7z M1381.6,303.2l-25-24.6l37.6-37.6l24.6,24.9L1381.6,303.2z
		 M1401.2,63.7l24.6,25l-24.6,24.6l-24.6-24.6L1401.2,63.7z"/>
</g>
</svg>
