<!--?xml version="1.0" encoding="utf-8"?-->
<!-- Generator: Adobe Illustrator 19.2.1, SVG Export Plug-In . SVG Version: 6.00 Build 0)  -->
<svg version="1.1" id="Ebene_1" xmlns="http://www.w3.org/2000/svg" xmlns:xlink="http://www.w3.org/1999/xlink" x="0px" y="0px" viewBox="0 0 1425.7 366.9" xml:space="preserve">
<style type="text/css">
	.st0{fill:none;stroke:#FFFFFF;stroke-width:7;stroke-miterlimit:10;}
</style>
<g>
	<path class="st0 aEmnzsgv_0" d="M34.9,37.6V297H0V37.6H34.9z M89.8,34.9H37.6V0h52.2V34.9z M38.4,113.2l37.2-36.8l24.6,24.6L63,138.2
		L38.4,113.2z"></path>
	<path class="st0 aEmnzsgv_1" d="M106,233.7v-34.9h34.9v34.9L106,233.7L106,233.7z M116,170.8l25-25l24.6,25L141,195.4L116,170.8z M140.9,286.7
		l-25-24.6l25-25l24.6,25L140.9,286.7z M168.9,135.9h34.9v34.9h-34.9V135.9z M203.9,297H169v-34.9h34.9V297z M267.2,198.8v-94h-63.3
		v-35h98.2V297h-34.9v-63.3h-34.9v-34.9L267.2,198.8L267.2,198.8z M232.3,145.8l24.6,25l-24.6,24.6l-25-24.6L232.3,145.8z
		 M256.8,262.1l-24.6,24.6l-25-24.6l25-25L256.8,262.1z"></path>
	<path class="st0 aEmnzsgv_2" d="M396.7,278.6h-34.9V69.8h34.9V278.6z M425.1,303.2l-25-24.6l74.5-74.5V69.8h34.9V297h-34.9v-43.4L425.1,303.2z
		"></path>
	<path class="st0 aEmnzsgv_3" d="M640.1,241.4l-61.8,61.4l-24.6-24.6l51.4-51.4v-87.1l-51.4-51.4l24.6-24.6l61.8,61.8V241.4z M643.5,125.5
		l61.8-61.8l24.6,24.6l-61.4,61.8L643.5,125.5z M729.9,278.2l-24.6,25l-61.8-61.8l25-24.9L729.9,278.2z"></path>
	<path class="st0 aEmnzsgv_4" d="M908.9,223l49.1,49.5L933.5,297l-24.6-24.6v94.4H874v-297h84v34.9h-49.1V223z M1011,104.4l-24.6,24.9l-25-24.9
		l25-24.6L1011,104.4z M961.5,272.5l25-25l24.6,25L986.4,297L961.5,272.5z M986.4,132.8h34.9v111.3h-34.9V132.8z"></path>
	<path class="st0 aEmnzsgv_5" d="M1059.8,233.7v-34.9h34.9v34.9L1059.8,233.7L1059.8,233.7z M1069.8,170.8l25-25l24.6,25l-24.6,24.6
		L1069.8,170.8z M1094.8,286.7l-25-24.6l25-25l24.6,25L1094.8,286.7z M1122.8,135.9h34.9v34.9h-34.9V135.9z M1157.7,297h-34.9v-34.9
		h34.9V297z M1221,198.8v-94h-63.3v-35h98.2V297H1221v-63.3h-34.9v-34.9L1221,198.8L1221,198.8z M1186.1,145.8l24.6,25l-24.6,24.6
		l-25-24.6L1186.1,145.8z M1210.7,262.1l-24.6,24.6l-25-24.6l25-25L1210.7,262.1z"></path>
	<path class="st0 aEmnzsgv_6" d="M1328.6,303.2l-24.6-24.6l24.6-25l24.6,25L1328.6,303.2z M1418.8,213l-24.6,24.6l-83.7-83.3l24.9-25
		L1418.8,213z M1348.2,63.7l25,25l-37.6,37.2l-24.6-24.6L1348.2,63.7z M1381.6,303.2l-25-24.6l37.6-37.6l24.6,24.9L1381.6,303.2z
		 M1401.2,63.7l24.6,25l-24.6,24.6l-24.6-24.6L1401.2,63.7z"></path>
</g>
<style>.aEmnzsgv_0{stroke-dasharray:938 940;stroke-dashoffset:939;animation:aEmnzsgv_draw 	linear 0ms forwards;}.aEmnzsgv_1{stroke-dasharray:1701 1703;stroke-dashoffset:1702;animation:aEmnzsgv_draw 5000ms linear 0ms forwards;}.aEmnzsgv_2{stroke-dasharray:1173 1175;stroke-dashoffset:1174;animation:aEmnzsgv_draw 5000ms linear 0ms forwards;}.aEmnzsgv_3{stroke-dasharray:1082 1084;stroke-dashoffset:1083;animation:aEmnzsgv_draw 5000ms linear 0ms forwards;}.aEmnzsgv_4{stroke-dasharray:1425 1427;stroke-dashoffset:1426;animation:aEmnzsgv_draw 5000ms linear 0ms forwards;}.aEmnzsgv_5{stroke-dasharray:1701 1703;stroke-dashoffset:1702;animation:aEmnzsgv_draw 5000ms linear 0ms forwards;}.aEmnzsgv_6{stroke-dasharray:938 940;stroke-dashoffset:939;animation:aEmnzsgv_draw 5000ms linear 0ms forwards;}@keyframes aEmnzsgv_draw{100%{stroke-dashoffset:0;}}@keyframes aEmnzsgv_fade{0%{stroke-opacity:1;}95.65217391304348%{stroke-opacity:1;}100%{stroke-opacity:0;}}</style></svg>
